PathFileType	4	(X/Y/Z)	C:/Users/opensim2020/Desktop/walking_exp_matlab/subject02_walking05_straight_04.trc	
DataRate	CameraRate	NumFrames	NumMarkers	Units	OrigDataRate	OrigDataStartFrame	OrigNumFrames	
100.00	100.00	6	42	mm	100.00	2763	220	
Frame#	Time	LFHD			RFHD			LBHD			RBHD			C7			T10			CLAV			STRN			RBAK			LSHO			LUPA			LELB			LFRM			LWRA			LWRB			LFIN			RSHO			RUPA			RELB			RFRM			RWRA			RWRB			RFIN			LASI			RASI			LPSI			RPSI			LTHI			LKNE			LTIB			LANK			LHEE			LTOE			RTHI			RKNE			RTIB			RANK			RHEE			RTOE			*39			*40			*41			
		X1	Y1	Z1	X2	Y2	Z2	X3	Y3	Z3	X4	Y4	Z4	X5	Y5	Z5	X6	Y6	Z6	X7	Y7	Z7	X8	Y8	Z8	X9	Y9	Z9	X10	Y10	Z10	X11	Y11	Z11	X12	Y12	Z12	X13	Y13	Z13	X14	Y14	Z14	X15	Y15	Z15	X16	Y16	Z16	X17	Y17	Z17	X18	Y18	Z18	X19	Y19	Z19	X20	Y20	Z20	X21	Y21	Z21	X22	Y22	Z22	X23	Y23	Z23	X24	Y24	Z24	X25	Y25	Z25	X26	Y26	Z26	X27	Y27	Z27	X28	Y28	Z28	X29	Y29	Z29	X30	Y30	Z30	X31	Y31	Z31	X32	Y32	Z32	X33	Y33	Z33	X34	Y34	Z34	X35	Y35	Z35	X36	Y36	Z36	X37	Y37	Z37	X38	Y38	Z38	X39	Y39	Z39	X40	Y40	Z40	X41	Y41	Z41	X42	Y42	Z42	

28	0.270	1512.34033	806.31793	1735.05981	1371.31067	822.83234	1711.59351	1537.16455	938.03943	1665.81079	1398.65076	966.57288	1642.27100	1471.38306	1005.92322	1523.04370	1460.66174	1062.34680	1247.37573	1477.43701	867.04681	1451.84949	1468.65991	818.31976	1280.61230	1409.23706	1069.68384	1347.82861	1646.55005	926.48486	1499.69702	1751.25916	883.98877	1316.87329	1788.08069	829.31482	1191.15125	1810.11536	750.84186	1085.12085	1784.29553	638.77917	1007.42999	1819.91235	677.97913	987.32867	1830.94958	625.55804	949.11432	1283.01318	938.72400	1485.67371	1201.21716	984.57629	1298.66833	1179.98901	975.18866	1152.07141	1161.21936	948.46533	1033.97949	1181.52283	902.35870	907.16644	1147.55566	947.59845	904.07825	1147.19873	910.84369	840.64349	1598.57971	838.51563	982.58685	1342.60364	822.70020	975.92426	1504.46240	1043.28137	1029.69250	1390.69897	1042.57935	1028.20740	1635.48022	946.74194	676.10541	1600.19421	1012.01440	481.45624	1594.24805	1096.94653	304.89832	1554.00208	1121.40137	82.05944	1500.62097	1156.37280	57.01661	1578.60498	968.94281	37.05824	1256.43506	826.64728	679.95483	1292.25916	753.87238	485.10037	1283.24817	758.29303	298.15933	1313.62476	733.88269	106.02228	1373.46619	748.37561	45.95494	1286.73486	578.06982	78.12122	1430.87634	914.64227	1801.63794	-3360.30176	2845.19995	1033.88074			 
29	0.280	1512.52856	796.86542	1733.93738	1371.24731	813.59491	1710.19189	1537.35034	928.40735	1664.63342	1398.94739	957.19952	1641.01331	1471.85986	996.44714	1521.90833	1461.11755	1053.22241	1246.33667	1477.32825	857.52710	1450.41687	1468.93835	809.37183	1279.31946	1410.06543	1060.65271	1346.85559	1646.56799	916.52216	1498.54395	1751.77075	873.64368	1316.25354	1789.06897	818.25616	1190.96948	1810.92126	738.22437	1085.88098	1785.40735	624.84790	1010.27777	1820.36523	663.76483	989.08459	1831.93274	610.91754	952.10486	1283.49707	929.91687	1484.45776	1201.66357	977.25464	1297.88379	1180.62708	969.14758	1151.00940	1161.66797	944.00336	1032.70654	1181.73657	899.12317	905.28839	1147.76086	944.87329	902.82788	1147.31287	908.66534	838.89423	1598.86670	830.18060	981.14868	1343.24963	814.23566	974.54224	1504.57495	1034.64038	1028.83069	1390.70435	1033.76050	1027.19336	1635.58972	941.26031	675.18091	1600.20325	1008.21185	481.27576	1594.14319	1094.75525	305.59354	1554.05347	1121.13342	82.80990	1500.55237	1156.18066	57.90193	1578.82629	969.03168	37.18530	1257.63086	819.82166	677.70349	1294.78418	745.80157	483.57300	1284.66406	742.05884	296.80545	1314.49963	709.64508	105.41827	1373.98523	722.85327	44.84182	1290.41370	552.21509	83.94188	1430.99670	905.18610	1800.44312	-3360.28882	2845.20459	1033.64307			 
30	0.290	1512.39954	787.19403	1732.66479	1371.31824	804.14642	1709.10559	1537.44995	918.73981	1663.38000	1399.05042	947.73065	1639.71790	1472.13818	986.87408	1520.71985	1461.30334	1044.00110	1245.29736	1477.58020	848.08966	1449.19971	1468.69873	800.03717	1277.69482	1410.65210	1051.47119	1345.74023	1646.91296	906.80579	1497.57520	1752.13831	863.40125	1315.47925	1789.69702	807.32861	1190.38171	1811.40649	725.97083	1086.24451	1786.15576	611.45117	1012.71637	1820.80554	650.19830	990.61053	1832.63806	596.77588	954.67944	1283.47473	920.65100	1482.98242	1201.78650	969.21869	1296.73853	1181.09937	962.81207	1149.94763	1162.01892	938.75793	1031.34155	1181.88257	895.63550	903.30383	1148.19104	941.68732	901.62604	1147.35168	906.22015	837.19574	1599.15369	821.71344	979.64935	1343.66040	805.29114	973.01068	1504.48682	1025.88171	1027.88916	1390.51453	1024.34351	1025.99146	1636.04089	935.95166	674.72278	1600.22253	1004.26428	481.17877	1594.03943	1092.73096	306.42120	1554.29175	1121.07043	83.88805	1500.41992	1155.91187	58.91761	1578.98047	969.00287	37.15521	1258.85486	813.08905	675.37616	1297.22766	737.94403	482.01871	1286.29028	726.64081	295.76682	1315.41138	686.40582	105.36269	1374.31006	697.96887	43.89054	1294.07971	527.61499	89.94772	1430.94763	895.62579	1799.07861	-3357.30884	2845.85376	1033.97913			 
31	0.300	1511.97009	777.38867	1731.34277	1370.95398	794.65912	1707.63782	1537.40027	908.99121	1662.11804	1399.05176	938.21069	1638.44397	1472.22717	977.18616	1519.47705	1461.44946	1034.73438	1244.20300	1477.42944	838.47925	1447.78015	1468.61707	790.74927	1276.21472	1410.98962	1042.08154	1344.55811	1646.60901	896.70764	1496.15393	1752.35876	853.36603	1314.52051	1790.29590	796.86279	1189.73132	1811.75659	714.11829	1086.40198	1786.40784	598.57745	1014.47894	1821.15393	637.16156	991.91760	1833.19250	583.30969	956.94324	1283.64099	911.53149	1481.57556	1202.05627	961.50702	1295.63782	1181.37854	956.44489	1148.93640	1161.96680	933.84985	1030.41614	1181.36890	891.81073	901.51849	1148.05762	937.95959	900.33038	1147.56482	903.44470	835.55731	1599.41028	813.11316	978.08820	1343.82922	796.10162	971.27631	1504.21204	1017.01453	1026.93823	1390.14099	1015.05353	1024.78479	1636.16150	930.45593	674.06146	1599.98792	1000.07062	480.97672	1593.64551	1090.27307	307.16696	1554.27332	1120.72449	84.77425	1500.38037	1155.65552	60.06075	1579.10364	968.94922	37.11095	1259.91235	806.36682	673.05731	1299.61865	730.19159	480.50867	1287.93274	712.01044	295.01227	1316.55518	664.37073	105.69962	1374.84766	674.53516	43.84253	1297.52759	504.47028	95.84747	1430.80750	886.05469	1797.81812	-3360.21582	2845.25391	1033.80945	1522.85706	848.95721	1757.68701 
32	0.310	1511.63306	767.69989	1730.03931	1370.74658	785.20380	1706.48962	1537.28418	899.21497	1660.80750	1398.89001	928.61377	1637.09204	1472.21509	967.44257	1518.23450	1461.48303	1025.23328	1243.04712	1477.14685	828.82324	1446.40491	1468.61194	781.43909	1274.91748	1411.10742	1032.48474	1343.16370	1646.48486	886.73767	1494.85669	1752.52527	843.47003	1313.46790	1790.57935	786.59729	1188.67957	1812.02515	702.71320	1086.27515	1786.99719	586.07404	1016.44305	1821.04407	624.55402	992.82196	1833.13416	570.12469	958.58771	1283.45032	902.24670	1480.11487	1202.33142	953.90527	1294.89197	1181.64746	949.75031	1147.80774	1162.18091	928.31360	1028.83813	1181.14563	887.80292	899.72852	1148.19434	934.22729	899.14624	1147.54028	900.36505	833.90320	1599.67871	804.48187	976.51984	1344.29114	786.80511	969.68536	1503.86890	1007.95007	1025.91724	1389.67310	1005.59216	1023.55774	1636.10339	924.71283	673.29742	1600.06262	995.93475	480.93533	1593.44409	1088.06702	308.27621	1554.09680	1120.11292	85.52054	1500.30994	1155.28967	61.43471	1579.15674	968.79468	36.91264	1260.95044	799.39215	670.68793	1301.78711	722.20837	478.83514	1289.65210	698.24200	294.29782	1317.62549	644.02612	106.42756	1375.69421	652.33569	43.99632	1300.57068	482.96423	101.23717	1430.63135	876.47986	1796.48572	-3357.42358	2845.74951	1033.93250			 
33	0.320	1511.14246	757.91803	1728.72156	1370.11108	775.55902	1705.02490	1536.96130	889.39819	1659.46582	1398.66003	918.99432	1635.72302	1472.03003	957.64655	1516.93066	1461.37622	1015.64893	1241.83484	1476.53101	819.02063	1444.81067	1468.31665	771.92883	1273.35376	1411.40491	1023.12061	1341.99426	1646.26477	876.72888	1493.54346	1752.30469	833.65894	1312.07898	1790.76941	776.69775	1187.52600	1811.90686	691.69263	1085.78833	1787.14795	574.14673	1017.78516	1820.61768	612.38232	993.09991	1832.89380	557.55444	959.78943	1283.03210	892.78241	1478.55078	1202.22693	945.45007	1293.46814	1181.75244	942.90601	1146.64819	1161.87146	922.67181	1027.45435	1180.85254	883.56335	898.10718	1148.09949	930.07709	897.86835	1146.93494	897.00415	832.10724	1599.70984	795.53540	974.82843	1344.56934	777.24200	968.00482	1503.31104	998.78375	1024.86035	1389.02222	996.02014	1022.29388	1636.39050	919.14398	672.96881	1600.03650	991.52466	481.06982	1592.94678	1085.40894	309.17725	1554.14697	1119.71301	86.66756	1500.21655	1154.86768	62.85268	1579.30701	968.74872	36.85778	1261.84314	792.06293	668.39996	1303.74463	714.07928	476.91553	1291.42554	685.18634	293.51291	1319.00195	625.01166	106.99467	1377.03210	631.86346	44.54451	1303.15515	463.38507	105.89645	1430.43994	866.90662	1795.17004	-3357.27002	2845.91016	1033.81921			 
